<svg width="474" height="283" viewBox="0 0 474 283" fill="none" xmlns="http://www.w3.org/2000/svg">
<path d="M86.0085 230.818V197.738H8.0332V168.596L92.8347 45.7254H125.915V165.708H151.119V197.738H125.915V230.818H86.0085ZM86.0085 165.708V105.323L45.0518 165.708H86.0085Z" fill="white"/>
<path d="M234.768 233.706C212.364 233.706 195.211 225.392 183.31 208.765C171.583 192.137 165.719 168.421 165.719 137.616C165.719 106.81 171.583 83.3566 183.31 67.2539C195.211 50.9762 212.364 42.8374 234.768 42.8374C257.172 42.8374 274.237 50.9762 285.964 67.2539C297.866 83.3566 303.817 106.81 303.817 137.616C303.817 168.421 297.866 192.137 285.964 208.765C274.237 225.392 257.172 233.706 234.768 233.706ZM234.768 200.626C244.92 200.626 252.446 195.638 257.347 185.661C262.248 175.509 264.698 159.494 264.698 137.616C264.698 115.737 262.248 99.9843 257.347 90.3577C252.446 80.7311 244.92 75.9178 234.768 75.9178C224.616 75.9178 217.09 80.7311 212.189 90.3577C207.288 99.9843 204.838 115.737 204.838 137.616C204.838 159.494 207.288 175.509 212.189 185.661C217.09 195.638 224.616 200.626 234.768 200.626Z" fill="white"/>
<path d="M400.855 230.818V197.738H322.88V168.596L407.681 45.7254H440.762V165.708H465.966V197.738H440.762V230.818H400.855ZM400.855 165.708V105.323L359.899 165.708H400.855Z" fill="white"/>
<path fill-rule="evenodd" clip-rule="evenodd" d="M183.759 10.6786C182.479 10.6763 180.733 10.7887 179.877 10.9287C179.022 11.0687 177.28 11.5405 176.006 11.9777C174.732 12.4145 172.75 13.3476 171.602 14.0512C170.453 14.7547 168.984 15.7994 168.336 16.3725C167.688 16.9458 166.472 18.2553 165.632 19.2828C164.793 20.3101 163.663 21.9481 163.121 22.9226C162.428 24.1696 161.868 25.7761 161.23 28.3472C160.581 30.9635 160.334 32.6083 160.36 34.1436C160.398 36.2871 160.398 36.2871 147.22 44.2186C139.972 48.5809 134.008 52.2851 133.967 52.4499C133.926 52.615 134.466 53.6908 135.166 54.8407C135.866 55.9909 136.612 56.9748 136.825 57.0276C137.037 57.0804 143.091 54.518 150.277 51.3336C163.344 45.5435 163.344 45.5435 164.276 47.0069C164.788 47.812 165.526 48.8623 165.915 49.341C166.552 50.1238 166.599 50.5192 166.393 53.2867C166.267 54.9786 166.208 57.641 166.261 59.2038C166.315 60.7665 166.579 63.6027 166.849 65.506C167.119 67.4096 167.758 70.4681 168.269 72.3031C168.779 74.1378 169.836 77.1566 170.616 79.0108C171.396 80.8654 172.673 83.535 173.454 84.9436C174.235 86.3521 175.732 88.6993 176.782 90.1598C177.832 91.6204 179.772 94.0047 181.093 95.4581C182.414 96.9116 184.781 99.1843 186.353 100.509C187.924 101.833 190.657 103.834 192.426 104.955C194.195 106.077 196.959 107.596 198.567 108.332C200.176 109.068 202.123 109.943 202.893 110.276C204.233 110.856 204.331 110.986 205.164 113.271C205.643 114.584 206.393 117.284 206.83 119.27C207.267 121.256 207.746 124.167 207.894 125.739C208.042 127.312 208.137 130.058 208.105 131.842C208.074 133.626 207.757 136.938 207.402 139.201C206.942 142.13 206.864 143.318 207.132 143.323C207.338 143.326 208.626 142.559 209.993 141.62C211.36 140.68 213.811 138.701 215.441 137.224C217.07 135.746 219.393 133.321 220.603 131.837C221.812 130.352 223.491 128.051 224.333 126.725C225.175 125.399 226.444 123.131 227.152 121.686C227.861 120.241 228.956 117.651 229.586 115.931C230.251 114.118 231.075 111.128 231.549 108.818C231.997 106.626 232.451 103.597 232.556 102.087C232.661 100.578 232.708 97.8667 232.66 96.0631C232.613 94.2594 232.375 91.501 232.132 89.9334C231.89 88.3658 231.53 86.9705 231.333 86.8324C231.136 86.6946 229.564 87.0564 227.84 87.6363C226.116 88.2162 223.338 89.0747 221.668 89.5438C219.997 90.0133 217.084 90.7138 215.193 91.1008C213.302 91.4879 210.621 91.8093 209.234 91.8145C206.921 91.8238 206.013 91.6419 198.187 89.6019C189.718 87.3942 189.647 87.37 187.526 85.9812C186.352 85.212 184.605 83.8155 183.644 82.878C182.618 81.8772 181.117 79.8711 180.009 78.0188C178.45 75.4124 178.006 74.3269 177.454 71.7684C177.087 70.0652 176.78 67.8324 176.771 66.8065C176.763 65.7804 176.946 63.8714 177.179 62.5642C177.412 61.2569 177.889 59.5025 178.239 58.6652C178.875 57.1431 178.875 57.1431 181.922 57.3674C183.597 57.4908 185.365 57.5383 185.851 57.4729C186.336 57.4074 186.725 57.3834 186.714 57.4192C186.703 57.455 186.338 58.0809 185.903 58.8103C185.445 59.5776 184.835 61.2569 184.457 62.7946C184.098 64.2566 183.793 66.0783 183.78 66.8429C183.767 67.6075 183.962 69.192 184.215 70.364C184.494 71.6606 185.192 73.3524 185.996 74.6851C186.722 75.8897 187.905 77.4084 188.624 78.0603C189.343 78.7119 190.883 79.7583 192.047 80.3853C193.211 81.0124 194.833 81.6894 195.652 81.8902C196.47 82.0907 198.077 82.2877 199.223 82.3277C200.368 82.3677 202.23 82.1795 203.36 81.9099C204.803 81.5653 206.57 80.7162 209.293 79.0592C211.425 77.7611 214.673 75.5574 216.511 74.1618C218.349 72.7666 221.354 70.2531 223.19 68.5765C225.025 66.8999 227.471 64.5064 228.625 63.2575C229.779 62.0087 231.548 59.9353 232.555 58.65C233.562 57.3648 235.105 55.2012 235.984 53.8422C236.862 52.4832 238.148 50.2202 238.843 48.8134C239.538 47.4066 240.549 44.9697 241.091 43.398C241.7 41.6328 242.237 39.4212 242.498 37.6133C242.73 36.0033 242.867 33.7336 242.802 32.5697C242.738 31.4057 242.565 29.9345 242.418 29.3006C242.27 28.6667 241.776 27.2526 241.32 26.1578C240.864 25.0631 240.349 24.1323 240.176 24.0892C240.003 24.0461 231.844 28.8237 222.045 34.7058C212.246 40.5881 204.383 45.1376 204.571 44.8162C204.759 44.4947 205.284 43.2318 205.738 42.0096C206.214 40.7271 206.715 38.7084 206.922 37.2341C207.12 35.8293 207.248 33.9037 207.206 32.9548C207.164 32.0059 206.899 30.195 206.617 28.9306C206.335 27.6662 205.808 25.9103 205.445 25.0284C205.083 24.1466 204.147 22.4474 203.365 21.2526C202.582 20.0577 201.31 18.4543 200.537 17.6898C199.765 16.9252 198.412 15.7769 197.531 15.138C196.651 14.4989 195.097 13.5712 194.079 13.0764C193.061 12.5813 190.846 11.8402 189.156 11.4296C187.204 10.9549 185.237 10.6811 183.759 10.6786ZM254.727 44.1266C247.893 45.4624 247.893 45.4624 246.65 48.3798C245.967 49.9843 244.751 52.4857 243.948 53.9383C243.146 55.3909 241.688 57.7508 240.707 59.1825C239.727 60.6141 237.966 62.9645 236.794 64.4059C235.622 65.8469 233.582 68.1321 232.262 69.4842C230.942 70.836 228.642 73.0349 227.15 74.3705C225.659 75.7061 222.926 77.9403 221.076 79.3352C219.227 80.7303 217.303 82.1747 216.802 82.5454C216.302 82.916 215.948 83.3127 216.017 83.427C216.086 83.5412 216.417 83.6173 216.753 83.5958C217.09 83.5743 219.717 82.8373 222.592 81.9579C225.467 81.0784 229.586 79.6091 231.746 78.6931C233.905 77.7772 237.183 76.2363 239.031 75.2688C240.878 74.3013 243.808 72.535 245.54 71.3438C247.273 70.1526 250.02 67.9708 251.645 66.4952C253.269 65.0197 255.399 62.8266 256.376 61.6218C257.354 60.417 258.681 58.5152 259.325 57.3955C260.012 56.2017 260.886 54.0832 261.44 52.2736C262.035 50.3265 262.419 48.4802 262.478 47.2708C262.531 46.2161 262.498 44.8053 262.405 44.1351C262.313 43.4653 262.085 42.8886 261.899 42.8541C261.713 42.8193 258.485 43.3921 254.727 44.1266ZM180.641 26.1985C181.094 26.5699 181.595 27.3093 181.754 27.8414C181.912 28.3739 181.956 29.1573 181.85 29.5824C181.744 30.0075 181.367 30.6866 181.011 31.0911C180.656 31.4957 180.021 31.9593 179.6 32.1209C179.18 32.2829 178.302 32.2825 177.651 32.1205C176.999 31.9584 176.224 31.5478 175.928 31.2078C175.632 30.868 175.288 30.161 175.164 29.637C175.039 29.113 175.024 28.3363 175.129 27.9112C175.235 27.486 175.639 26.8157 176.027 26.4214C176.415 26.027 177.183 25.6064 177.733 25.4862C178.284 25.3662 178.978 25.3254 179.276 25.3957C179.574 25.4658 180.189 25.8271 180.641 26.1985Z" fill="#326CF4"/>
<circle r="9.36434" transform="matrix(-0.970443 -0.24133 -0.24133 0.970443 181.713 30.5132)" fill="white"/>
<circle r="4.90717" transform="matrix(-0.970443 -0.24133 -0.24133 0.970443 181.716 30.5139)" fill="#5A5E6A"/>
<line x1="0.875" y1="274.842" x2="473.125" y2="274.842" stroke="#326CF4" stroke-width="15"/>
</svg>
