<svg width="473" height="283" viewBox="0 0 473 283" fill="none" xmlns="http://www.w3.org/2000/svg">
<path d="M85.4617 230.818V197.738H7.48633V168.596L92.2878 45.7254H125.368V165.708H150.572V197.738H125.368V230.818H85.4617ZM85.4617 165.708V105.323L44.5049 165.708H85.4617Z" fill="#1A1A1A"/>
<path d="M234.221 233.706C211.817 233.706 194.665 225.392 182.763 208.765C171.036 192.137 165.172 168.421 165.172 137.616C165.172 106.81 171.036 83.3566 182.763 67.2539C194.665 50.9762 211.817 42.8374 234.221 42.8374C256.625 42.8374 273.69 50.9762 285.417 67.2539C297.319 83.3566 303.27 106.81 303.27 137.616C303.27 168.421 297.319 192.137 285.417 208.765C273.69 225.392 256.625 233.706 234.221 233.706ZM234.221 200.626C244.373 200.626 251.899 195.638 256.8 185.661C261.701 175.509 264.151 159.494 264.151 137.616C264.151 115.737 261.701 99.9843 256.8 90.3577C251.899 80.7311 244.373 75.9178 234.221 75.9178C224.069 75.9178 216.543 80.7311 211.642 90.3577C206.742 99.9843 204.291 115.737 204.291 137.616C204.291 159.494 206.742 175.509 211.642 185.661C216.543 195.638 224.069 200.626 234.221 200.626Z" fill="#1A1A1A"/>
<path d="M400.308 230.818V197.738H322.333V168.596L407.135 45.7254H440.215V165.708H465.419V197.738H440.215V230.818H400.308ZM400.308 165.708V105.323L359.352 165.708H400.308Z" fill="#1A1A1A"/>
<path fill-rule="evenodd" clip-rule="evenodd" d="M183.212 10.6786C181.932 10.6763 180.186 10.7887 179.33 10.9287C178.475 11.0687 176.733 11.5405 175.459 11.9777C174.185 12.4145 172.203 13.3476 171.055 14.0512C169.906 14.7547 168.437 15.7994 167.789 16.3725C167.141 16.9458 165.925 18.2553 165.086 19.2828C164.246 20.3101 163.116 21.9481 162.575 22.9226C161.881 24.1696 161.321 25.7761 160.683 28.3472C160.034 30.9635 159.787 32.6083 159.814 34.1436C159.851 36.2871 159.851 36.2871 146.673 44.2186C139.425 48.5809 133.461 52.2851 133.42 52.4499C133.379 52.615 133.919 53.6908 134.619 54.8407C135.319 55.9909 136.065 56.9748 136.278 57.0276C136.49 57.0804 142.544 54.518 149.731 51.3336C162.798 45.5435 162.798 45.5435 163.729 47.0069C164.242 47.812 164.979 48.8623 165.368 49.341C166.005 50.1238 166.053 50.5192 165.847 53.2867C165.721 54.9786 165.661 57.641 165.714 59.2038C165.768 60.7665 166.033 63.6027 166.303 65.506C166.573 67.4096 167.211 70.4681 167.722 72.3031C168.233 74.1378 169.289 77.1566 170.069 79.0108C170.849 80.8654 172.126 83.535 172.907 84.9436C173.688 86.3521 175.185 88.6993 176.235 90.1598C177.285 91.6204 179.225 94.0047 180.546 95.4581C181.867 96.9116 184.234 99.1843 185.806 100.509C187.377 101.833 190.11 103.834 191.879 104.955C193.648 106.077 196.412 107.596 198.02 108.332C199.629 109.068 201.576 109.943 202.346 110.276C203.686 110.856 203.784 110.986 204.617 113.271C205.096 114.584 205.846 117.284 206.283 119.27C206.72 121.256 207.199 124.167 207.347 125.739C207.495 127.312 207.59 130.058 207.558 131.842C207.527 133.626 207.21 136.938 206.855 139.201C206.395 142.13 206.318 143.318 206.585 143.323C206.791 143.326 208.079 142.559 209.446 141.62C210.813 140.68 213.264 138.701 214.894 137.224C216.523 135.746 218.846 133.321 220.056 131.837C221.265 130.352 222.944 128.051 223.786 126.725C224.628 125.399 225.897 123.131 226.605 121.686C227.314 120.241 228.409 117.651 229.039 115.931C229.704 114.118 230.528 111.128 231.002 108.818C231.451 106.626 231.904 103.597 232.009 102.087C232.114 100.578 232.161 97.8667 232.114 96.0631C232.066 94.2594 231.828 91.501 231.586 89.9334C231.343 88.3658 230.983 86.9705 230.786 86.8324C230.589 86.6946 229.017 87.0564 227.293 87.6363C225.569 88.2162 222.791 89.0747 221.121 89.5438C219.45 90.0133 216.537 90.7138 214.646 91.1008C212.755 91.4879 210.074 91.8093 208.688 91.8145C206.374 91.8238 205.466 91.6419 197.64 89.6019C189.171 87.3942 189.1 87.37 186.979 85.9812C185.806 85.212 184.059 83.8155 183.097 82.878C182.071 81.8772 180.57 79.8711 179.462 78.0188C177.903 75.4124 177.459 74.3269 176.908 71.7684C176.54 70.0652 176.233 67.8324 176.224 66.8065C176.216 65.7804 176.399 63.8714 176.632 62.5642C176.865 61.2569 177.342 59.5025 177.692 58.6652C178.328 57.1431 178.328 57.1431 181.375 57.3674C183.05 57.4908 184.819 57.5383 185.304 57.4729C185.789 57.4074 186.178 57.3834 186.167 57.4192C186.156 57.455 185.791 58.0809 185.356 58.8103C184.898 59.5776 184.289 61.2569 183.91 62.7946C183.551 64.2566 183.246 66.0783 183.233 66.8429C183.22 67.6075 183.415 69.192 183.668 70.364C183.948 71.6606 184.645 73.3524 185.449 74.6851C186.175 75.8897 187.358 77.4084 188.077 78.0603C188.796 78.7119 190.336 79.7583 191.5 80.3853C192.664 81.0124 194.286 81.6894 195.105 81.8902C195.924 82.0907 197.53 82.2877 198.676 82.3277C199.821 82.3677 201.683 82.1795 202.813 81.9099C204.256 81.5653 206.023 80.7162 208.746 79.0592C210.878 77.7611 214.127 75.5574 215.964 74.1618C217.802 72.7666 220.807 70.2531 222.643 68.5765C224.479 66.8999 226.924 64.5064 228.078 63.2575C229.232 62.0087 231.001 59.9353 232.008 58.65C233.016 57.3648 234.559 55.2012 235.437 53.8422C236.315 52.4832 237.601 50.2202 238.296 48.8134C238.991 47.4066 240.002 44.9697 240.544 43.398C241.153 41.6328 241.69 39.4212 241.951 37.6133C242.183 36.0033 242.32 33.7336 242.255 32.5697C242.191 31.4057 242.018 29.9345 241.871 29.3006C241.723 28.6667 241.23 27.2526 240.773 26.1578C240.317 25.0631 239.802 24.1323 239.629 24.0892C239.456 24.0461 231.297 28.8237 221.498 34.7058C211.699 40.5881 203.836 45.1376 204.024 44.8162C204.212 44.4947 204.737 43.2318 205.191 42.0096C205.667 40.7271 206.168 38.7084 206.375 37.2341C206.573 35.8293 206.701 33.9037 206.659 32.9548C206.618 32.0059 206.352 30.195 206.07 28.9306C205.788 27.6662 205.261 25.9103 204.899 25.0284C204.536 24.1466 203.6 22.4474 202.818 21.2526C202.035 20.0577 200.763 18.4543 199.991 17.6898C199.218 16.9252 197.865 15.7769 196.984 15.138C196.104 14.4989 194.55 13.5712 193.532 13.0764C192.515 12.5813 190.299 11.8402 188.61 11.4296C186.657 10.9549 184.69 10.6811 183.212 10.6786ZM254.18 44.1266C247.346 45.4624 247.346 45.4624 246.103 48.3798C245.42 49.9843 244.204 52.4857 243.401 53.9383C242.599 55.3909 241.141 57.7508 240.16 59.1825C239.18 60.6141 237.419 62.9645 236.247 64.4059C235.075 65.8469 233.035 68.1321 231.715 69.4842C230.395 70.836 228.095 73.0349 226.604 74.3705C225.112 75.7061 222.379 77.9403 220.529 79.3352C218.68 80.7303 216.756 82.1747 216.256 82.5454C215.755 82.916 215.401 83.3127 215.47 83.427C215.539 83.5412 215.87 83.6173 216.207 83.5958C216.543 83.5743 219.17 82.8373 222.045 81.9579C224.92 81.0784 229.039 79.6091 231.199 78.6931C233.358 77.7772 236.636 76.2363 238.484 75.2688C240.331 74.3013 243.261 72.535 244.993 71.3438C246.726 70.1526 249.473 67.9708 251.098 66.4952C252.722 65.0197 254.852 62.8266 255.83 61.6218C256.807 60.417 258.134 58.5152 258.778 57.3955C259.465 56.2017 260.339 54.0832 260.893 52.2736C261.488 50.3265 261.872 48.4802 261.931 47.2708C261.984 46.2161 261.951 44.8053 261.859 44.1351C261.766 43.4653 261.538 42.8886 261.352 42.8541C261.166 42.8193 257.939 43.3921 254.18 44.1266ZM180.095 26.1985C180.547 26.5699 181.048 27.3093 181.207 27.8414C181.365 28.3739 181.409 29.1573 181.303 29.5824C181.197 30.0075 180.82 30.6866 180.464 31.0911C180.109 31.4957 179.474 31.9593 179.053 32.1209C178.633 32.2829 177.755 32.2825 177.104 32.1205C176.452 31.9584 175.677 31.5478 175.381 31.2078C175.085 30.868 174.742 30.161 174.617 29.637C174.492 29.113 174.477 28.3363 174.583 27.9112C174.688 27.486 175.092 26.8157 175.48 26.4214C175.868 26.027 176.636 25.6064 177.186 25.4862C177.737 25.3662 178.431 25.3254 178.729 25.3957C179.027 25.4658 179.642 25.8271 180.095 26.1985Z" fill="#326CF4"/>
<circle r="9.36434" transform="matrix(-0.970443 -0.24133 -0.24133 0.970443 181.166 30.5132)" fill="white"/>
<circle r="4.90717" transform="matrix(-0.970443 -0.24133 -0.24133 0.970443 181.169 30.5139)" fill="#5A5E6A"/>
<line x1="0.328125" y1="274.842" x2="472.578" y2="274.842" stroke="#326CF4" stroke-width="15"/>
</svg>
