<svg width="184" height="34" viewBox="0 0 184 34" fill="none" xmlns="http://www.w3.org/2000/svg">
<path d="M49.2442 24.764C47.9162 24.764 46.7562 24.516 45.7642 24.02C44.7882 23.524 44.0282 22.812 43.4842 21.884C42.9402 20.956 42.6682 19.852 42.6682 18.572C42.6682 17.292 42.9402 16.196 43.4842 15.284C44.0282 14.356 44.7882 13.652 45.7642 13.172C46.7562 12.676 47.9162 12.428 49.2442 12.428C50.0282 12.428 50.8042 12.54 51.5722 12.764C52.3562 12.972 52.9962 13.268 53.4922 13.652L52.3642 16.58C51.9962 16.292 51.5642 16.068 51.0682 15.908C50.5882 15.732 50.1322 15.644 49.7002 15.644C48.8522 15.644 48.1962 15.9 47.7322 16.412C47.2682 16.924 47.0362 17.644 47.0362 18.572C47.0362 19.516 47.2682 20.252 47.7322 20.78C48.1962 21.292 48.8522 21.548 49.7002 21.548C50.1322 21.548 50.5882 21.468 51.0682 21.308C51.5642 21.132 51.9962 20.9 52.3642 20.612L53.4922 23.54C52.9962 23.924 52.3562 24.228 51.5722 24.452C50.7882 24.66 50.0122 24.764 49.2442 24.764ZM54.8452 24.5V12.692H58.9972V14.684C59.5412 13.324 60.7172 12.58 62.5252 12.452L63.7012 12.356L63.9412 15.956L61.6132 16.172C60.7652 16.252 60.1492 16.492 59.7652 16.892C59.3812 17.276 59.1892 17.852 59.1892 18.62V24.5H54.8452ZM66.698 28.82L69.074 23.684L64.25 12.692H68.738L71.33 19.388L74.018 12.692H78.242L71.018 28.82H66.698ZM78.9623 28.82V12.692H83.1143V14.3C83.4343 13.724 83.9223 13.268 84.5783 12.932C85.2343 12.596 85.9543 12.428 86.7383 12.428C87.7463 12.428 88.6343 12.676 89.4023 13.172C90.1863 13.668 90.7943 14.38 91.2263 15.308C91.6743 16.22 91.8983 17.316 91.8983 18.596C91.8983 19.86 91.6823 20.956 91.2503 21.884C90.8183 22.812 90.2103 23.524 89.4263 24.02C88.6583 24.516 87.7623 24.764 86.7383 24.764C86.0023 24.764 85.3143 24.612 84.6743 24.308C84.0503 24.004 83.5703 23.596 83.2343 23.084V28.82H78.9623ZM85.3943 21.62C86.0343 21.62 86.5623 21.38 86.9783 20.9C87.3943 20.42 87.6023 19.652 87.6023 18.596C87.6023 17.524 87.3943 16.756 86.9783 16.292C86.5623 15.812 86.0343 15.572 85.3943 15.572C84.7383 15.572 84.2023 15.812 83.7863 16.292C83.3703 16.756 83.1623 17.524 83.1623 18.596C83.1623 19.652 83.3703 20.42 83.7863 20.9C84.2023 21.38 84.7383 21.62 85.3943 21.62ZM99.92 24.764C98.128 24.764 96.8 24.348 95.936 23.516C95.072 22.684 94.64 21.428 94.64 19.748V15.836H92.432V12.692H94.64V9.26H98.912V12.692H102.272V15.836H98.912V19.604C98.912 20.756 99.496 21.332 100.664 21.332C100.856 21.332 101.064 21.316 101.288 21.284C101.528 21.236 101.792 21.172 102.08 21.092L102.656 24.164C102.288 24.356 101.856 24.5 101.36 24.596C100.864 24.708 100.384 24.764 99.92 24.764ZM109.806 24.764C108.494 24.764 107.35 24.516 106.374 24.02C105.398 23.524 104.638 22.812 104.094 21.884C103.55 20.956 103.278 19.86 103.278 18.596C103.278 17.316 103.55 16.22 104.094 15.308C104.638 14.38 105.398 13.668 106.374 13.172C107.35 12.676 108.494 12.428 109.806 12.428C111.118 12.428 112.262 12.676 113.238 13.172C114.214 13.668 114.966 14.38 115.494 15.308C116.038 16.22 116.31 17.316 116.31 18.596C116.31 19.86 116.038 20.956 115.494 21.884C114.966 22.812 114.214 23.524 113.238 24.02C112.262 24.516 111.118 24.764 109.806 24.764ZM109.806 21.62C110.446 21.62 110.974 21.38 111.39 20.9C111.806 20.42 112.014 19.652 112.014 18.596C112.014 17.524 111.806 16.756 111.39 16.292C110.974 15.812 110.446 15.572 109.806 15.572C109.15 15.572 108.614 15.812 108.198 16.292C107.782 16.756 107.574 17.524 107.574 18.596C107.574 19.652 107.782 20.42 108.198 20.9C108.614 21.38 109.15 21.62 109.806 21.62Z" fill="#1A1B27"/>
<path d="M131.227 29.972L128.515 25.58C128.163 25.036 127.555 24.764 126.691 24.764C124.979 24.764 123.475 24.404 122.179 23.684C120.899 22.948 119.899 21.924 119.179 20.612C118.475 19.3 118.123 17.772 118.123 16.028C118.123 14.268 118.475 12.74 119.179 11.444C119.899 10.132 120.907 9.116 122.203 8.396C123.499 7.676 125.003 7.316 126.715 7.316C128.427 7.316 129.923 7.676 131.203 8.396C132.499 9.116 133.507 10.132 134.227 11.444C134.947 12.74 135.307 14.268 135.307 16.028C135.307 17.788 134.939 19.332 134.203 20.66C133.483 21.972 132.475 22.98 131.179 23.684C131.963 23.908 132.595 24.42 133.075 25.22L134.995 28.268L131.227 29.972ZM126.715 21.068C127.963 21.068 128.939 20.628 129.643 19.748C130.363 18.852 130.723 17.612 130.723 16.028C130.723 14.444 130.371 13.212 129.667 12.332C128.963 11.452 127.979 11.012 126.715 11.012C125.451 11.012 124.467 11.452 123.763 12.332C123.059 13.212 122.707 14.444 122.707 16.028C122.707 17.612 123.059 18.852 123.763 19.748C124.467 20.628 125.451 21.068 126.715 21.068ZM142.042 24.764C140.506 24.764 139.37 24.348 138.634 23.516C137.914 22.668 137.554 21.38 137.554 19.652V12.692H141.826V19.772C141.826 20.924 142.322 21.5 143.314 21.5C143.89 21.5 144.362 21.292 144.73 20.876C145.098 20.46 145.282 19.908 145.282 19.22V12.692H149.554V24.5H145.378V23.036C144.61 24.188 143.498 24.764 142.042 24.764ZM151.92 10.652V6.788H156.408V10.652H151.92ZM152.04 24.5V12.692H156.312V24.5H152.04ZM164.814 24.764C163.486 24.764 162.326 24.516 161.334 24.02C160.358 23.524 159.598 22.812 159.054 21.884C158.51 20.956 158.238 19.852 158.238 18.572C158.238 17.292 158.51 16.196 159.054 15.284C159.598 14.356 160.358 13.652 161.334 13.172C162.326 12.676 163.486 12.428 164.814 12.428C165.598 12.428 166.374 12.54 167.142 12.764C167.926 12.972 168.566 13.268 169.062 13.652L167.934 16.58C167.566 16.292 167.134 16.068 166.638 15.908C166.158 15.732 165.702 15.644 165.27 15.644C164.422 15.644 163.766 15.9 163.302 16.412C162.838 16.924 162.606 17.644 162.606 18.572C162.606 19.516 162.838 20.252 163.302 20.78C163.766 21.292 164.422 21.548 165.27 21.548C165.702 21.548 166.158 21.468 166.638 21.308C167.134 21.132 167.566 20.9 167.934 20.612L169.062 23.54C168.566 23.924 167.926 24.228 167.142 24.452C166.358 24.66 165.582 24.764 164.814 24.764ZM170.415 24.5V7.58H174.687V17.444H174.735L178.623 12.692H183.639L178.959 18.308L183.807 24.5H178.695L174.735 19.58H174.687V24.5H170.415Z" fill="#326CF4"/>
<circle cx="17.0189" cy="17" r="16.9911" fill="#326CF4"/>
<circle cx="17.0189" cy="17" r="15.5896" fill="#1A1B27"/>
<mask id="mask0_485_624" style="mask-type:alpha" maskUnits="userSpaceOnUse" x="1" y="1" width="32" height="32">
<circle cx="17.0189" cy="17" r="15.5896" fill="#1A1B27"/>
</mask>
<g mask="url(#mask0_485_624)">
<path opacity="0.1" fill-rule="evenodd" clip-rule="evenodd" d="M26.3957 2.1939L27.1027 2.34771L27.9017 2.68343L28.7006 3.01904L29.3837 3.47102L30.0668 3.92287L30.7616 4.61552L31.4565 5.30829L31.9934 6.17087L32.5303 7.03357L32.9055 8.12808L33.2809 9.22258L33.2794 10.8355L33.2779 12.4485L33.0418 13.1398L32.8058 13.831L37.022 18.0635L41.238 22.296L40.5525 22.9888L39.867 23.6816H39.7646H39.6622L35.3085 20.2946L30.9549 16.9075L30.5146 17.3583L30.0744 17.8091L29.6386 18.1111L29.2027 18.4132V18.6963V18.9793L28.9661 20.1495L28.7294 21.3197L28.2717 22.7023L27.814 24.0848L27.1951 25.3521L26.5761 26.6194L25.8933 27.6563L25.2106 28.6932L24.5976 29.4421L23.9848 30.191L23.3391 30.8668L22.6933 31.5425L21.6844 32.3904L20.6755 33.2382L19.8131 33.82L18.9509 34.4019L17.769 35.022L16.5871 35.6421L15.4791 36.0521L14.371 36.4623L13.4629 36.713L12.5547 36.9637L11.1205 37.2065L9.6861 37.4495L9.08493 38.3538L8.48376 39.2581L7.90736 40.4275L7.33096 41.5969L6.96631 42.6338L6.60167 43.6707L6.32401 44.8804L6.04635 46.0901L5.90879 47.6766L5.77135 49.2631L5.68609 49.2319L5.60083 49.2008L4.83595 48.3367L4.07106 47.4726L3.26516 46.2747L2.45914 45.0767L2.00475 44.173L1.55036 43.2693L1.20784 42.4069L0.865314 41.5447L0.520603 40.2459L0.175892 38.947L-0.0130539 37.5069L-0.202 36.0667L-0.136791 34.3386L-0.071579 32.6104L0.0965118 31.6887L0.264492 30.767L0.513924 29.7877L0.763351 28.8084L1.21556 27.6492L1.66788 26.4899L1.82133 26.2799L1.97491 26.07L3.67001 27.114L5.36511 28.1582L7.00134 28.9723L8.63757 29.7865L9.5861 30.0252L10.5347 30.264L13.9641 30.2264L17.3936 30.1886L18.3153 29.8663L19.237 29.544L20.0182 29.0825L20.7994 28.6211L21.5576 27.9119L22.3158 27.2026L22.7478 26.5654L23.1798 25.9282L23.4805 25.3336L23.7814 24.7389L24.017 23.8934L24.2527 23.0479L24.3176 22.0686L24.3824 21.0893L24.2866 20.4653L24.1907 19.8413L23.0387 19.6433L21.8868 19.4454L21.554 19.3137L21.2213 19.1819L21.1717 19.2313L21.1223 19.2808L21.3029 19.8892L21.4836 20.4975V21.5589V22.6204L21.2521 23.3699L21.0206 24.1194L20.5526 24.8202L20.0846 25.5211L19.5455 25.9885L19.0066 26.4561L18.1913 26.853L17.376 27.25L16.492 27.3874L15.6078 27.5249L14.7149 27.387L13.8221 27.2491L12.9587 26.8402L12.0954 26.4313L10.939 25.2581L9.78276 24.0848L8.79345 22.8751L7.80413 21.6654L6.82714 20.2252L5.85015 18.7851L5.20889 17.633L4.56773 16.4809L4.09825 15.4133L3.62877 14.3457L3.23313 13.1631L2.8375 11.9806L2.58922 10.7169L2.34093 9.453L2.34174 7.89765L2.34255 6.3423L2.58162 5.42062L2.82079 4.49893L3.16308 3.79891L3.50537 3.09888L3.91656 2.56039L4.32775 2.02189H4.466H4.60426L10.2343 7.63843L15.8643 13.255L15.7902 12.9331L15.7161 12.6112L15.6084 11.7619L15.5008 10.9127L15.6152 9.90521L15.7297 8.89768L16.0211 8.02323L16.3125 7.14878L16.784 6.3423L17.2556 5.53583L18.259 4.53764L19.2623 3.53945L20.4594 2.96259L21.6564 2.38584L22.4856 2.20381L23.3149 2.02189L24.5018 2.03099L25.6888 2.04021L26.3957 2.1939ZM-2.88653 8.11367L-0.470211 9.24332L-0.269512 10.4657L-0.0686989 11.6881L0.174164 12.6392L0.416916 13.5901L0.869232 14.8194L1.32155 16.0486L1.82951 17.1431L2.33748 18.2375L2.88208 19.2025L3.42669 20.1676L4.26174 21.4349L5.0969 22.7023L6.04969 23.912L7.00249 25.1217L7.45607 25.6201L7.90955 26.1185L7.84872 26.1793L7.78788 26.2403L6.88774 25.7472L5.98771 25.2542L4.89678 24.571L3.80585 23.8878L2.53495 22.9398L1.26406 21.9919L0.169556 21.0121L-0.92495 20.0324L-1.68235 19.1783L-2.43986 18.3242L-3.01983 17.5754L-3.5998 16.8265L-4.0762 16.0663L-4.5526 15.3062L-5.02208 14.3043L-5.49168 13.3024L-5.77176 12.1982L-6.05184 11.0941L-6.05011 10.0431L-6.04838 8.99216L-5.8826 8.28926L-5.71692 7.58624L-5.57786 7.28116L-5.4388 6.97597L-5.37082 6.98L-5.30297 6.98391L-2.88653 8.11367ZM25.8905 8.52256L25.516 8.93121V9.34182V9.75244L25.6829 10.0753L25.8499 10.3981L26.1397 10.5881L26.4296 10.7779H26.8985H27.3674L27.6573 10.5881L27.9472 10.3981L28.1141 10.0753L28.281 9.75244V9.3901V9.02776L28.0853 8.69641L27.8897 8.36506L27.538 8.18545L27.1865 8.00572L26.7258 8.05987L26.265 8.1139L25.8905 8.52256Z" fill="url(#paint0_linear_485_624)"/>
<path fill-rule="evenodd" clip-rule="evenodd" d="M19.464 8.0143C19.0706 8.01359 18.5336 8.04815 18.2705 8.09121C18.0075 8.13426 17.4718 8.27934 17.0801 8.41377C16.6883 8.54809 16.0789 8.83502 15.7258 9.05136C15.3726 9.26769 14.9208 9.58893 14.7216 9.76514C14.5225 9.94143 14.1483 10.3441 13.8903 10.66C13.6322 10.9759 13.2848 11.4796 13.1182 11.7793C12.905 12.1627 12.7327 12.6567 12.5365 13.4473C12.3369 14.2518 12.261 14.7576 12.2692 15.2297C12.2806 15.8888 12.2806 15.8888 8.22847 18.3277C5.99977 19.6691 4.16599 20.8082 4.15339 20.8588C4.14077 20.9096 4.30665 21.2404 4.52192 21.594C4.73716 21.9477 4.96674 22.2502 5.03197 22.2664C5.09729 22.2827 6.95881 21.4948 9.16871 20.5155C13.1868 18.7351 13.1868 18.7351 13.4732 19.1851C13.6308 19.4327 13.8576 19.7556 13.9772 19.9028C14.173 20.1436 14.1877 20.2651 14.1243 21.1161C14.0855 21.6364 14.0672 22.4551 14.0837 22.9356C14.1001 23.4162 14.1815 24.2883 14.2645 24.8735C14.3476 25.4589 14.544 26.3994 14.7009 26.9636C14.858 27.5278 15.1828 28.456 15.4227 29.0262C15.6626 29.5965 16.0552 30.4174 16.2954 30.8505C16.5354 31.2836 16.9959 32.0054 17.3187 32.4545C17.6416 32.9036 18.2381 33.6368 18.6444 34.0837C19.0506 34.5306 19.7784 35.2295 20.2617 35.6367C20.7449 36.044 21.5853 36.6592 22.1293 37.004C22.6732 37.3488 23.523 37.816 24.0177 38.0423C24.5123 38.2686 25.1109 38.5377 25.3477 38.6402C25.7598 38.8185 25.79 38.8583 26.0462 39.561C26.1935 39.9649 26.424 40.795 26.5584 41.4057C26.6928 42.0163 26.84 42.9115 26.8855 43.3951C26.9309 43.8787 26.9602 44.7231 26.9505 45.2717C26.9409 45.8202 26.8435 46.8385 26.7343 47.5345C26.5929 48.4352 26.569 48.8005 26.6512 48.8018C26.7146 48.8028 27.1106 48.5672 27.5309 48.2781C27.9513 47.9891 28.7051 47.3808 29.2062 46.9264C29.7073 46.4719 30.4216 45.7265 30.7935 45.2699C31.1654 44.8133 31.6816 44.106 31.9405 43.6981C32.1995 43.2903 32.5895 42.593 32.8073 42.1487C33.0253 41.7044 33.362 40.908 33.5559 40.379C33.7602 39.8215 34.0138 38.9022 34.1593 38.1917C34.2973 37.5176 34.4367 36.5863 34.4691 36.1221C34.5014 35.6579 34.5159 34.8243 34.5012 34.2697C34.4865 33.7151 34.4134 32.8669 34.3388 32.3849C34.2642 31.9028 34.1536 31.4738 34.093 31.4313C34.0323 31.3889 33.549 31.5002 33.0188 31.6785C32.4886 31.8568 31.6346 32.1208 31.1209 32.2651C30.6073 32.4094 29.7113 32.6248 29.1299 32.7438C28.5485 32.8628 27.724 32.9617 27.2977 32.9633C26.5865 32.9661 26.3071 32.9102 23.9008 32.2829C21.2964 31.6041 21.2746 31.5966 20.6226 31.1696C20.2616 30.9331 19.7244 30.5036 19.4288 30.2153C19.1132 29.9076 18.6518 29.2907 18.3111 28.7212C17.8317 27.9197 17.6952 27.5859 17.5255 26.7992C17.4126 26.2755 17.318 25.5889 17.3155 25.2734C17.3128 24.9579 17.3692 24.3709 17.4408 23.9689C17.5125 23.5669 17.6591 23.0275 17.7668 22.77C17.9624 22.302 17.9624 22.302 18.8992 22.3709C19.4144 22.4089 19.9581 22.4235 20.1074 22.4034C20.2566 22.3832 20.3761 22.3758 20.3728 22.3868C20.3695 22.3979 20.2572 22.5903 20.1233 22.8146C19.9825 23.0505 19.7951 23.5669 19.6789 24.0398C19.5684 24.4893 19.4746 25.0495 19.4705 25.2846C19.4665 25.5197 19.5267 26.0069 19.6044 26.3673C19.6903 26.766 19.9047 27.2863 20.152 27.6961C20.3754 28.0665 20.739 28.5335 20.9601 28.7339C21.1811 28.9343 21.6548 29.2561 22.0127 29.4489C22.3706 29.6417 22.8694 29.8499 23.1212 29.9116C23.3729 29.9732 23.867 30.0338 24.2192 30.0461C24.5713 30.0584 25.1438 30.0006 25.4914 29.9176C25.9351 29.8117 26.4785 29.5506 27.3156 29.0411C27.9714 28.6419 28.9702 27.9643 29.5353 27.5352C30.1004 27.1061 31.0245 26.3332 31.5889 25.8177C32.1534 25.3021 32.9055 24.5661 33.2603 24.1821C33.6152 23.7981 34.1589 23.1605 34.4687 22.7653C34.7785 22.3701 35.253 21.7048 35.523 21.2869C35.793 20.8691 36.1887 20.1732 36.4023 19.7406C36.6159 19.308 36.9269 18.5587 37.0935 18.0754C37.2807 17.5326 37.446 16.8525 37.5261 16.2966C37.5974 15.8015 37.6395 15.1036 37.6198 14.7457C37.6 14.3878 37.5468 13.9354 37.5015 13.7405C37.4562 13.5456 37.3043 13.1107 37.164 12.7741C37.0238 12.4375 36.8654 12.1513 36.8122 12.138C36.7589 12.1248 34.25 13.5938 31.237 15.4026C28.2238 17.2113 25.8059 18.6103 25.8638 18.5115C25.9217 18.4126 26.0831 18.0243 26.2227 17.6485C26.369 17.2541 26.523 16.6334 26.5868 16.18C26.6475 15.7481 26.6869 15.1559 26.6741 14.8641C26.6612 14.5724 26.5797 14.0155 26.4928 13.6267C26.4061 13.2379 26.244 12.698 26.1327 12.4268C26.0213 12.1556 25.7334 11.6332 25.4928 11.2658C25.2522 10.8983 24.8609 10.4053 24.6234 10.1702C24.3859 9.93511 23.9699 9.582 23.6991 9.38556C23.4283 9.18903 22.9505 8.90375 22.6376 8.7516C22.3246 8.59936 21.6434 8.37148 21.1239 8.24523C20.5234 8.09925 19.9186 8.01506 19.464 8.0143ZM41.2865 18.2994C39.1851 18.7102 39.1851 18.7102 38.803 19.6073C38.5928 20.1006 38.2189 20.8698 37.9722 21.3165C37.7254 21.7632 37.277 22.4888 36.9755 22.9291C36.6741 23.3693 36.1326 24.092 35.7721 24.5352C35.4117 24.9783 34.7846 25.681 34.3787 26.0968C33.9727 26.5125 33.2654 27.1886 32.8069 27.5993C32.3482 28.01 31.5077 28.697 30.939 29.1259C30.3703 29.5549 29.7789 29.9991 29.6249 30.1131C29.4709 30.227 29.3622 30.349 29.3834 30.3841C29.4045 30.4193 29.5064 30.4427 29.6098 30.4361C29.7133 30.4295 30.5211 30.2028 31.4052 29.9324C32.2893 29.662 33.5558 29.2102 34.2198 28.9285C34.8839 28.6469 35.8919 28.173 36.46 27.8755C37.0281 27.5781 37.9289 27.0349 38.4616 26.6686C38.9944 26.3023 39.8391 25.6314 40.3387 25.1777C40.8383 24.724 41.4931 24.0496 41.7938 23.6791C42.0944 23.3087 42.5024 22.7239 42.7004 22.3796C42.9115 22.0125 43.1805 21.3611 43.3506 20.8046C43.5338 20.2059 43.6517 19.6382 43.67 19.2663C43.6861 18.942 43.6761 18.5081 43.6476 18.3021C43.6193 18.0961 43.5492 17.9188 43.4919 17.9081C43.4348 17.8974 42.4423 18.0736 41.2865 18.2994ZM18.5055 12.7866C18.6448 12.9008 18.7987 13.1282 18.8475 13.2918C18.8962 13.4555 18.9096 13.6964 18.8771 13.8271C18.8446 13.9579 18.7286 14.1667 18.6192 14.2911C18.5098 14.4155 18.3146 14.558 18.1853 14.6077C18.056 14.6575 17.7862 14.6574 17.5859 14.6076C17.3855 14.5578 17.1471 14.4315 17.0562 14.327C16.9652 14.2225 16.8595 14.0051 16.8211 13.8439C16.7828 13.6828 16.7781 13.444 16.8106 13.3132C16.8431 13.1825 16.9672 12.9764 17.0866 12.8552C17.2059 12.7339 17.4419 12.6045 17.6113 12.5676C17.7806 12.5307 17.994 12.5181 18.0857 12.5398C18.1774 12.5613 18.3663 12.6724 18.5055 12.7866Z" fill="#326CF4"/>
<circle r="2.8795" transform="matrix(-0.970443 -0.24133 -0.24133 0.970443 18.8357 14.1137)" fill="white"/>
<circle r="1.50894" transform="matrix(-0.970443 -0.24133 -0.24133 0.970443 18.8357 14.1136)" fill="#5A5E6A"/>
</g>
<path d="M29.1545 11.8387C29.5305 11.6655 29.6965 11.2191 29.5047 10.8523C28.051 8.07226 25.758 5.81212 22.9428 4.39959C20.1276 2.98706 16.9451 2.49986 13.8475 2.99624C13.4387 3.06175 13.1801 3.46163 13.266 3.86663C13.3518 4.27162 13.7496 4.52816 14.1587 4.46492C16.9232 4.03766 19.7592 4.47957 22.2705 5.73959C24.7817 6.99962 26.8313 9.00904 28.1412 11.4807C28.3351 11.8464 28.7785 12.012 29.1545 11.8387Z" fill="white"/>
<defs>
<linearGradient id="paint0_linear_485_624" x1="41.238" y1="25.6425" x2="-6.05184" y2="25.6425" gradientUnits="userSpaceOnUse">
<stop stop-color="#4481EB"/>
<stop offset="1" stop-color="#04BEFE"/>
</linearGradient>
</defs>
</svg>
