<svg width="14" height="14" viewBox="0 0 14 14" fill="none" xmlns="http://www.w3.org/2000/svg">
<path d="M7 10C8.65685 10 10 8.65685 10 7C10 5.34315 8.65685 4 7 4C5.34315 4 4 5.34315 4 7C4 8.65685 5.34315 10 7 10Z" fill="white"/>
<path d="M6.4 2.2C6.4 2.53137 6.66863 2.8 7 2.8C7.33137 2.8 7.6 2.53137 7.6 2.2H6.4ZM7.6 1C7.6 0.668629 7.33137 0.4 7 0.4C6.66863 0.4 6.4 0.668629 6.4 1H7.6ZM7.6 11.8C7.6 11.4686 7.33137 11.2 7 11.2C6.66863 11.2 6.4 11.4686 6.4 11.8H7.6ZM6.4 13C6.4 13.3314 6.66863 13.6 7 13.6C7.33137 13.6 7.6 13.3314 7.6 13H6.4ZM7.6 2.2V1H6.4V2.2H7.6ZM6.4 11.8V13H7.6V11.8H6.4Z" fill="white"/>
<path d="M3.22407 4.0726C3.45838 4.30691 3.83828 4.30691 4.0726 4.0726C4.30691 3.83828 4.30691 3.45838 4.0726 3.22407L3.22407 4.0726ZM3.22407 2.37554C2.98975 2.14123 2.60986 2.14123 2.37554 2.37554C2.14123 2.60986 2.14123 2.98975 2.37554 3.22407L3.22407 2.37554ZM10.8608 10.0123C10.6265 9.77798 10.2466 9.77798 10.0123 10.0123C9.77798 10.2466 9.77798 10.6265 10.0123 10.8608L10.8608 10.0123ZM10.8608 11.7093C11.0951 11.9437 11.475 11.9437 11.7093 11.7093C11.9437 11.475 11.9437 11.0951 11.7093 10.8608L10.8608 11.7093ZM4.0726 3.22407L3.22407 2.37554L2.37554 3.22407L3.22407 4.0726L4.0726 3.22407ZM10.0123 10.8608L10.8608 11.7093L11.7093 10.8608L10.8608 10.0123L10.0123 10.8608Z" fill="white"/>
<path d="M2.2 7.6C2.53137 7.6 2.8 7.33137 2.8 7C2.8 6.66863 2.53137 6.4 2.2 6.4V7.6ZM1 6.4C0.668629 6.4 0.4 6.66863 0.4 7C0.4 7.33137 0.668629 7.6 1 7.6V6.4ZM11.8 6.4C11.4686 6.4 11.2 6.66863 11.2 7C11.2 7.33137 11.4686 7.6 11.8 7.6V6.4ZM13 7.6C13.3314 7.6 13.6 7.33137 13.6 7C13.6 6.66863 13.3314 6.4 13 6.4V7.6ZM2.2 6.4H1V7.6H2.2V6.4ZM11.8 7.6H13V6.4H11.8V7.6Z" fill="white"/>
<path d="M10.0123 3.22407C9.77798 3.45838 9.77798 3.83828 10.0123 4.0726C10.2466 4.30691 10.6265 4.30691 10.8608 4.0726L10.0123 3.22407ZM11.7093 3.22407C11.9437 2.98975 11.9437 2.60986 11.7093 2.37554C11.475 2.14123 11.0951 2.14123 10.8608 2.37554L11.7093 3.22407ZM4.0726 10.8608C4.30691 10.6265 4.30691 10.2466 4.0726 10.0123C3.83828 9.77798 3.45838 9.77798 3.22407 10.0123L4.0726 10.8608ZM2.37554 10.8608C2.14123 11.0951 2.14123 11.475 2.37554 11.7093C2.60986 11.9437 2.98975 11.9437 3.22407 11.7093L2.37554 10.8608ZM10.8608 4.0726L11.7093 3.22407L10.8608 2.37554L10.0123 3.22407L10.8608 4.0726ZM3.22407 10.0123L2.37554 10.8608L3.22407 11.7093L4.0726 10.8608L3.22407 10.0123Z" fill="white"/>
</svg>
