<svg width="16" height="16" viewBox="0 0 16 16" fill="none" xmlns="http://www.w3.org/2000/svg">
<path d="M10.3903 4.82292L8.36349 0.428863C8.22045 0.118764 7.77972 0.118765 7.63669 0.428863L5.60991 4.82292C5.55161 4.9493 5.43184 5.03632 5.29363 5.05271L0.488326 5.62245C0.149205 5.66266 0.013013 6.08182 0.263734 6.31368L3.81642 9.5991C3.9186 9.69359 3.96435 9.83439 3.93722 9.9709L2.99416 14.7171C2.92761 15.052 3.28417 15.3111 3.58216 15.1443L7.80462 12.7807C7.92606 12.7127 8.07411 12.7127 8.19556 12.7807L12.418 15.1443C12.716 15.3111 13.0726 15.052 13.006 14.7171L12.0629 9.9709C12.0358 9.83439 12.0816 9.69359 12.1838 9.5991L15.7364 6.31368C15.9872 6.08182 15.851 5.66266 15.5118 5.62245L10.7065 5.05271C10.5683 5.03632 10.4486 4.9493 10.3903 4.82292Z" fill="#326CF4"/>
</svg>
