<svg width="17" height="17" viewBox="0 0 17 17" fill="none" xmlns="http://www.w3.org/2000/svg">
<path d="M10.8883 5.82292L8.86153 1.42886C8.7185 1.11876 8.27777 1.11876 8.13473 1.42886L6.10795 5.82292C6.04966 5.9493 5.92989 6.03632 5.79167 6.05271L0.986373 6.62245C0.647252 6.66266 0.51106 7.08182 0.761781 7.31368L4.31446 10.5991C4.41665 10.6936 4.4624 10.8344 4.43527 10.9709L3.49221 15.7171C3.42566 16.052 3.78221 16.3111 4.0802 16.1443L8.30266 13.7807C8.42411 13.7127 8.57216 13.7127 8.69361 13.7807L12.9161 16.1443C13.2141 16.3111 13.5706 16.052 13.5041 15.7171L12.561 10.9709C12.5339 10.8344 12.5796 10.6936 12.6818 10.5991L16.2345 7.31368C16.4852 7.08182 16.349 6.66266 16.0099 6.62245L11.2046 6.05271C11.0664 6.03632 10.9466 5.9493 10.8883 5.82292Z" stroke="#326CF4" stroke-linecap="round" stroke-linejoin="round"/>
</svg>
