<svg width="20" height="24" viewBox="0 0 20 24" fill="none" xmlns="http://www.w3.org/2000/svg">
<path d="M7.96445 17.4684C8.51674 17.4684 8.96445 17.0207 8.96445 16.4684C8.96445 15.9161 8.51674 15.4684 7.96445 15.4684V17.4684ZM2.22371 16.4684V15.4684C1.67143 15.4684 1.22371 15.9161 1.22371 16.4684H2.22371ZM1.22371 22.2091C1.22371 22.7614 1.67143 23.2091 2.22371 23.2091C2.776 23.2091 3.22371 22.7614 3.22371 22.2091H1.22371ZM19.7044 15.6912C19.9113 15.1792 19.6639 14.5963 19.1519 14.3894C18.6398 14.1825 18.057 14.4299 17.8501 14.942L19.7044 15.6912ZM5.96997 19.9971L6.43713 19.1129L5.96997 19.9971ZM3.18666 15.9931C2.90885 15.5158 2.29669 15.354 1.81936 15.6318C1.34204 15.9096 1.1803 16.5218 1.45811 16.9991L3.18666 15.9931ZM12.557 6.28322C12.0048 6.28322 11.557 6.73094 11.557 7.28322C11.557 7.83551 12.0048 8.28322 12.557 8.28322V6.28322ZM18.2978 7.28322V8.28322C18.8501 8.28322 19.2978 7.83551 19.2978 7.28322H18.2978ZM19.2978 1.54248C19.2978 0.990196 18.8501 0.54248 18.2978 0.54248C17.7455 0.54248 17.2978 0.990196 17.2978 1.54248H19.2978ZM0.817201 8.06038C0.610311 8.57245 0.857709 9.15528 1.36978 9.36217C1.88185 9.56906 2.46468 9.32166 2.67157 8.80959L0.817201 8.06038ZM4.85534 4.44956L5.44383 5.25806L4.85534 4.44956ZM14.5517 3.75452L15.0188 2.87035L14.5517 3.75452ZM17.335 7.75851C17.6128 8.23583 18.225 8.39757 18.7023 8.11976C19.1796 7.84195 19.3413 7.22979 19.0635 6.75247L17.335 7.75851ZM7.96445 15.4684H2.22371V17.4684H7.96445V15.4684ZM1.22371 16.4684V22.2091H3.22371V16.4684H1.22371ZM17.8501 14.942C17.2764 16.3619 16.3159 17.5923 15.0778 18.4935L16.2548 20.1105C17.7954 18.9891 18.9906 17.458 19.7044 15.6912L17.8501 14.942ZM15.0778 18.4935C13.8397 19.3947 12.3736 19.9305 10.8461 20.04L10.9891 22.0349C12.8898 21.8987 14.7141 21.2319 16.2548 20.1105L15.0778 18.4935ZM10.8461 20.04C9.31867 20.1495 7.79113 19.8283 6.43713 19.1129L5.50281 20.8813C7.18766 21.7715 9.08844 22.1711 10.9891 22.0349L10.8461 20.04ZM6.43713 19.1129C5.08313 18.3975 3.95697 17.3166 3.18666 15.9931L1.45811 16.9991C2.41664 18.6461 3.81797 19.9911 5.50281 20.8813L6.43713 19.1129ZM12.557 8.28322H18.2978V6.28322H12.557V8.28322ZM19.2978 7.28322V1.54248H17.2978V7.28322H19.2978ZM2.67157 8.80959C3.24523 7.38973 4.20571 6.15926 5.44383 5.25806L4.26685 3.64106C2.7262 4.76246 1.53104 6.29358 0.817201 8.06038L2.67157 8.80959ZM5.44383 5.25806C6.68195 4.35686 8.14806 3.82107 9.67552 3.71158L9.53253 1.7167C7.63184 1.85294 5.8075 2.51965 4.26685 3.64106L5.44383 5.25806ZM9.67552 3.71158C11.203 3.60209 12.7305 3.9233 14.0845 4.63869L15.0188 2.87035C13.334 1.98015 11.4332 1.58046 9.53253 1.7167L9.67552 3.71158ZM14.0845 4.63869C15.4385 5.35409 16.5647 6.43498 17.335 7.75851L19.0635 6.75247C18.105 5.10554 16.7037 3.76054 15.0188 2.87035L14.0845 4.63869Z" fill="#373737"/>
</svg>
