<svg width="20" height="24" viewBox="0 0 20 24" fill="none" xmlns="http://www.w3.org/2000/svg">
<path d="M7.96445 17.4669C8.51674 17.4669 8.96445 17.0192 8.96445 16.4669C8.96445 15.9147 8.51674 15.4669 7.96445 15.4669V17.4669ZM2.22371 16.4669V15.4669C1.67143 15.4669 1.22371 15.9147 1.22371 16.4669H2.22371ZM1.22371 22.2077C1.22371 22.76 1.67143 23.2077 2.22371 23.2077C2.776 23.2077 3.22371 22.76 3.22371 22.2077H1.22371ZM19.7044 15.6898C19.9113 15.1777 19.6639 14.5949 19.1519 14.388C18.6398 14.1811 18.057 14.4285 17.8501 14.9405L19.7044 15.6898ZM5.96997 19.9956L6.43713 19.1114L5.96997 19.9956ZM3.18666 15.9916C2.90885 15.5143 2.29669 15.3526 1.81936 15.6304C1.34204 15.9082 1.1803 16.5203 1.45811 16.9977L3.18666 15.9916ZM12.557 6.28176C12.0048 6.28176 11.557 6.72947 11.557 7.28176C11.557 7.83404 12.0048 8.28176 12.557 8.28176V6.28176ZM18.2978 7.28176V8.28176C18.8501 8.28176 19.2978 7.83404 19.2978 7.28176H18.2978ZM19.2978 1.54102C19.2978 0.988731 18.8501 0.541016 18.2978 0.541016C17.7455 0.541016 17.2978 0.988731 17.2978 1.54102H19.2978ZM0.817201 8.05891C0.610311 8.57098 0.857709 9.15381 1.36978 9.3607C1.88185 9.56759 2.46468 9.3202 2.67157 8.80813L0.817201 8.05891ZM4.85534 4.4481L5.44383 5.2566L4.85534 4.4481ZM14.5517 3.75305L15.0188 2.86888L14.5517 3.75305ZM17.335 7.75704C17.6128 8.23437 18.225 8.39611 18.7023 8.1183C19.1796 7.84049 19.3413 7.22833 19.0635 6.751L17.335 7.75704ZM7.96445 15.4669H2.22371V17.4669H7.96445V15.4669ZM1.22371 16.4669V22.2077H3.22371V16.4669H1.22371ZM17.8501 14.9405C17.2764 16.3604 16.3159 17.5909 15.0778 18.4921L16.2548 20.1091C17.7954 18.9877 18.9906 17.4566 19.7044 15.6898L17.8501 14.9405ZM15.0778 18.4921C13.8397 19.3933 12.3736 19.9291 10.8461 20.0386L10.9891 22.0334C12.8898 21.8972 14.7141 21.2305 16.2548 20.1091L15.0778 18.4921ZM10.8461 20.0386C9.31867 20.148 7.79113 19.8268 6.43713 19.1114L5.50281 20.8798C7.18766 21.77 9.08844 22.1697 10.9891 22.0334L10.8461 20.0386ZM6.43713 19.1114C5.08313 18.396 3.95697 17.3152 3.18666 15.9916L1.45811 16.9977C2.41664 18.6446 3.81797 19.9896 5.50281 20.8798L6.43713 19.1114ZM12.557 8.28176H18.2978V6.28176H12.557V8.28176ZM19.2978 7.28176V1.54102H17.2978V7.28176H19.2978ZM2.67157 8.80813C3.24523 7.38826 4.20571 6.1578 5.44383 5.2566L4.26685 3.63959C2.7262 4.761 1.53104 6.29211 0.817201 8.05891L2.67157 8.80813ZM5.44383 5.2566C6.68195 4.3554 8.14806 3.8196 9.67552 3.71011L9.53253 1.71523C7.63184 1.85148 5.8075 2.51819 4.26685 3.63959L5.44383 5.2566ZM9.67552 3.71011C11.203 3.60063 12.7305 3.92183 14.0845 4.63723L15.0188 2.86888C13.334 1.97868 11.4332 1.57899 9.53253 1.71523L9.67552 3.71011ZM14.0845 4.63723C15.4385 5.35262 16.5647 6.43351 17.335 7.75704L19.0635 6.751C18.105 5.10408 16.7037 3.75908 15.0188 2.86888L14.0845 4.63723Z" fill="#1A1B27"/>
</svg>
