<svg width="26" height="26" viewBox="0 0 26 26" fill="none" xmlns="http://www.w3.org/2000/svg">
<circle cx="12.962" cy="13" r="12.7433" fill="#326CF4"/>
<circle cx="12.962" cy="13" r="11.6922" fill="#1A1B27"/>
<mask id="mask0_496_36" style="mask-type:alpha" maskUnits="userSpaceOnUse" x="1" y="1" width="24" height="24">
<circle cx="12.962" cy="13" r="11.6922" fill="#1A1B27"/>
</mask>
<g mask="url(#mask0_496_36)">
<path opacity="0.1" fill-rule="evenodd" clip-rule="evenodd" d="M19.9946 1.89543L20.5248 2.01078L21.124 2.26257L21.7233 2.51428L22.2356 2.85326L22.7479 3.19215L23.269 3.71164L23.7902 4.23121L24.1928 4.87815L24.5955 5.52518L24.8769 6.34606L25.1585 7.16693L25.1573 8.37665L25.1562 9.58637L24.9792 10.1048L24.8022 10.6233L27.9643 13.7976L31.1263 16.972L30.6122 17.4916L30.0981 18.0112H30.0212H29.9444L26.6791 15.4709L23.414 12.9306L23.0838 13.2687L22.7536 13.6069L22.4267 13.8333L22.0999 14.0599V14.2722V14.4845L21.9224 15.3622L21.7449 16.2398L21.4016 17.2767L21.0583 18.3136L20.5941 19.2641L20.1299 20.2146L19.6178 20.9923L19.1057 21.7699L18.646 22.3316L18.1864 22.8932L17.7021 23.4001L17.2178 23.9069L16.4611 24.5428L15.7044 25.1786L15.0577 25.615L14.411 26.0515L13.5245 26.5165L12.6382 26.9816L11.8072 27.2891L10.9761 27.5967L10.295 27.7847L9.61387 27.9727L8.53817 28.1549L7.46239 28.3371L7.01151 29.0153L6.56063 29.6936L6.12833 30.5706L5.69603 31.4477L5.42255 32.2253L5.14907 33.003L4.94082 33.9103L4.73258 34.8176L4.62941 36.0074L4.52632 37.1973L4.46238 37.1739L4.39844 37.1506L3.82477 36.5025L3.25111 35.8545L2.64668 34.956L2.04217 34.0575L1.70137 33.3797L1.36058 32.702L1.10369 32.0552L0.846799 31.4085L0.588265 30.4344L0.329731 29.4603L0.188023 28.3802L0.0463122 27.3001L0.0952201 26.0039L0.144128 24.7078L0.270196 24.0165L0.39618 23.3253L0.583255 22.5908L0.770327 21.8563L1.10948 20.9869L1.44872 20.1175L1.56381 19.9599L1.679 19.8025L2.95032 20.5855L4.22165 21.3686L5.44882 21.9792L6.67599 22.5899L7.38738 22.7689L8.09887 22.948L10.6709 22.9198L13.243 22.8914L13.9343 22.6497L14.6255 22.408L15.2115 22.0619L15.7973 21.7158L16.366 21.1839L16.9346 20.652L17.2587 20.1741L17.5827 19.6961L17.8082 19.2502L18.0338 18.8041L18.2105 18.1701L18.3873 17.5359L18.436 16.8015L18.4846 16.067L18.4127 15.599L18.3408 15.131L17.4768 14.9825L16.6129 14.834L16.3633 14.7353L16.1138 14.6364L16.0766 14.6735L16.0395 14.7106L16.175 15.1669L16.3105 15.6231V16.4192V17.2153L16.1369 17.7774L15.9632 18.3395L15.6122 18.8651L15.2612 19.3908L14.8569 19.7414L14.4527 20.0921L13.8413 20.3897L13.2298 20.6875L12.5668 20.7906L11.9037 20.8937L11.234 20.7902L10.5644 20.6868L9.91682 20.3801L9.26936 20.0735L8.40208 19.1936L7.53488 18.3136L6.7929 17.4063L6.05091 16.499L5.31817 15.4189L4.58542 14.3388L4.10448 13.4747L3.62361 12.6107L3.2715 11.81L2.91939 11.0092L2.62266 10.1224L2.32594 9.23546L2.13973 8.28765L1.95351 7.33975L1.95412 6.17324L1.95472 5.00673L2.13402 4.31546L2.31341 3.6242L2.57012 3.09918L2.82684 2.57416L3.13524 2.17029L3.44363 1.76642H3.54731H3.65101L7.87352 5.97882L12.096 10.1912L12.0405 9.9498L11.9849 9.70837L11.9041 9.07146L11.8234 8.43454L11.9092 7.6789L11.9951 6.92326L12.2136 6.26742L12.4322 5.61159L12.7858 5.00673L13.1395 4.40187L13.892 3.65323L14.6446 2.90459L15.5423 2.47194L16.4401 2.03938L17.062 1.90286L17.684 1.76642L18.5741 1.77324L19.4644 1.78016L19.9946 1.89543ZM-1.96709 6.33525L-0.154846 7.18249L-0.00432289 8.09928L0.146288 9.01607L0.328436 9.72937L0.510498 10.4426L0.849736 11.3646L1.18897 12.2865L1.56995 13.1073L1.95092 13.9281L2.35938 14.6519L2.76783 15.3757L3.39411 16.3262L4.02049 17.2767L4.73508 18.184L5.44968 19.0913L5.78987 19.4651L6.12997 19.8389L6.08435 19.8845L6.03872 19.9302L5.36362 19.5604L4.6886 19.1906L3.8704 18.6782L3.0522 18.1658L2.09903 17.4549L1.14586 16.7439L0.324979 16.0091L-0.495899 15.2743L-1.06395 14.6337L-1.63208 13.9932L-2.06706 13.4315L-2.50204 12.8699L-2.85934 12.2998L-3.21664 11.7296L-3.56875 10.9782L-3.92095 10.2268L-4.13101 9.39869L-4.34107 8.57055L-4.33977 7.78233L-4.33847 6.99412L-4.21413 6.46694L-4.08988 5.93968L-3.98558 5.71087L-3.88129 5.48197L-3.83031 5.485L-3.77941 5.48794L-1.96709 6.33525ZM19.6157 6.64192L19.3348 6.94841V7.25637V7.56433L19.46 7.80644L19.5852 8.04856L19.8026 8.19104L20.02 8.33345H20.3717H20.7234L20.9408 8.19104L21.1582 8.04856L21.2834 7.80644L21.4086 7.56433V7.29257V7.02082L21.2618 6.77231L21.1151 6.5238L20.8513 6.38909L20.5877 6.25429L20.2422 6.2949L19.8965 6.33543L19.6157 6.64192Z" fill="url(#paint0_linear_496_36)"/>
<path fill-rule="evenodd" clip-rule="evenodd" d="M14.7958 6.26071C14.5008 6.26019 14.098 6.2861 13.9007 6.3184C13.7034 6.35069 13.3016 6.4595 13.0079 6.56032C12.7141 6.66106 12.257 6.87625 11.9922 7.03851C11.7273 7.20076 11.3884 7.44169 11.239 7.57384C11.0897 7.70607 10.8091 8.00808 10.6155 8.24502C10.422 8.48195 10.1614 8.85971 10.0364 9.08445C9.87655 9.37204 9.74735 9.74255 9.60018 10.3355C9.45049 10.9389 9.39358 11.3182 9.3997 11.6723C9.40828 12.1666 9.40828 12.1666 6.36916 13.9958C4.69764 15.0018 3.32231 15.8561 3.31285 15.8941C3.30339 15.9322 3.4278 16.1803 3.58925 16.4455C3.75068 16.7107 3.92287 16.9377 3.97179 16.9498C4.02078 16.962 5.41692 16.3711 7.07435 15.6367C10.0879 14.3013 10.0879 14.3013 10.3027 14.6388C10.4209 14.8245 10.591 15.0667 10.6807 15.1771C10.8275 15.3577 10.8386 15.4488 10.791 16.0871C10.762 16.4773 10.7482 17.0913 10.7606 17.4517C10.7729 17.8121 10.8339 18.4662 10.8962 18.9051C10.9585 19.3441 11.1058 20.0495 11.2235 20.4727C11.3413 20.8958 11.5849 21.592 11.7649 22.0196C11.9448 22.4473 12.2392 23.063 12.4193 23.3879C12.5994 23.7127 12.9447 24.254 13.1868 24.5909C13.429 24.9277 13.8763 25.4776 14.1811 25.8127C14.4858 26.148 15.0316 26.6721 15.3941 26.9775C15.7565 27.283 16.3868 27.7444 16.7947 28.003C17.2027 28.2616 17.84 28.612 18.211 28.7817C18.5821 28.9515 19.031 29.1533 19.2086 29.2301C19.5177 29.3639 19.5403 29.3938 19.7325 29.9207C19.8429 30.2237 20.0158 30.8463 20.1166 31.3042C20.2174 31.7622 20.3278 32.4336 20.3619 32.7963C20.396 33.159 20.418 33.7923 20.4107 34.2037C20.4035 34.6152 20.3305 35.3789 20.2485 35.9009C20.1425 36.5764 20.1245 36.8503 20.1862 36.8513C20.2338 36.8521 20.5308 36.6754 20.846 36.4586C21.1613 36.2418 21.7266 35.7856 22.1025 35.4448C22.4783 35.1039 23.014 34.5449 23.2929 34.2024C23.5718 33.8599 23.959 33.3295 24.1532 33.0236C24.3474 32.7177 24.6399 32.1948 24.8033 31.8615C24.9667 31.5283 25.2193 30.931 25.3647 30.5343C25.5179 30.1161 25.7081 29.4267 25.8173 28.8937C25.9208 28.3882 26.0254 27.6897 26.0496 27.3416C26.0739 26.9934 26.0847 26.3682 26.0737 25.9523C26.0627 25.5363 26.0078 24.9001 25.9519 24.5386C25.896 24.1771 25.813 23.8553 25.7676 23.8235C25.7221 23.7917 25.3596 23.8751 24.9619 24.0089C24.5643 24.1426 23.9237 24.3406 23.5385 24.4488C23.1533 24.5571 22.4813 24.7186 22.0452 24.8079C21.6092 24.8971 20.9908 24.9713 20.6711 24.9725C20.1377 24.9746 19.9281 24.9327 18.1234 24.4622C16.1701 23.953 16.1537 23.9475 15.6648 23.6272C15.394 23.4498 14.9911 23.1277 14.7694 22.9115C14.5327 22.6807 14.1866 22.218 13.9312 21.7909C13.5716 21.1898 13.4692 20.9394 13.342 20.3494C13.2573 19.9566 13.1863 19.4416 13.1844 19.205C13.1824 18.9684 13.2247 18.5282 13.2784 18.2267C13.3322 17.9252 13.4422 17.5206 13.5229 17.3275C13.6696 16.9765 13.6696 16.9765 14.3722 17.0282C14.7586 17.0567 15.1664 17.0676 15.2784 17.0525C15.3903 17.0374 15.4799 17.0319 15.4774 17.0401C15.4749 17.0484 15.3907 17.1927 15.2903 17.361C15.1847 17.5379 15.0442 17.9252 14.957 18.2798C14.8741 18.617 14.8038 19.0371 14.8007 19.2134C14.7977 19.3898 14.8428 19.7552 14.9011 20.0255C14.9655 20.3245 15.1263 20.7147 15.3118 21.022C15.4793 21.2998 15.7521 21.6501 15.9179 21.8004C16.0837 21.9507 16.4389 22.192 16.7073 22.3366C16.9757 22.4812 17.3498 22.6374 17.5387 22.6837C17.7275 22.7299 18.098 22.7754 18.3622 22.7846C18.6263 22.7938 19.0557 22.7504 19.3164 22.6882C19.6491 22.6088 20.0566 22.4129 20.6845 22.0308C21.1764 21.7314 21.9255 21.2232 22.3493 20.9014C22.7731 20.5796 23.4662 19.9999 23.8895 19.6132C24.3129 19.2266 24.877 18.6746 25.1431 18.3866C25.4092 18.0986 25.817 17.6204 26.0494 17.324C26.2817 17.0276 26.6376 16.5286 26.8401 16.2152C27.0426 15.9018 27.3393 15.3799 27.4996 15.0555C27.6597 14.731 27.893 14.169 28.0179 13.8065C28.1583 13.3994 28.2823 12.8894 28.3424 12.4725C28.3959 12.1012 28.4274 11.5777 28.4126 11.3093C28.3978 11.0408 28.3579 10.7016 28.3239 10.5554C28.2899 10.4092 28.176 10.0831 28.0708 9.83056C27.9657 9.57809 27.8469 9.36344 27.8069 9.3535C27.767 9.34357 25.8853 10.4454 23.6255 11.8019C21.3657 13.1585 19.5522 14.2077 19.5957 14.1336C19.6391 14.0595 19.7601 13.7682 19.8648 13.4863C19.9746 13.1906 20.0901 12.725 20.1379 12.385C20.1835 12.061 20.213 11.6169 20.2034 11.3981C20.1937 11.1793 20.1326 10.7616 20.0674 10.47C20.0024 10.1784 19.8808 9.77347 19.7973 9.5701C19.7138 9.36672 19.4978 8.97486 19.3174 8.6993C19.1369 8.42373 18.8435 8.05396 18.6654 7.87765C18.4872 7.70132 18.1753 7.43649 17.9721 7.28916C17.769 7.14177 17.4107 6.9278 17.176 6.81369C16.9413 6.69951 16.4304 6.5286 16.0407 6.43391C15.5904 6.32443 15.1368 6.26128 14.7958 6.26071ZM31.1627 13.9746C29.5866 14.2826 29.5866 14.2826 29.3 14.9555C29.1424 15.3255 28.862 15.9024 28.6769 16.2374C28.4919 16.5724 28.1555 17.1166 27.9295 17.4468C27.7034 17.777 27.2973 18.319 27.0269 18.6514C26.7566 18.9837 26.2863 19.5108 25.9818 19.8226C25.6773 20.1343 25.1469 20.6415 24.803 20.9495C24.459 21.2575 23.8286 21.7728 23.4021 22.0944C22.9755 22.4162 22.532 22.7493 22.4165 22.8348C22.301 22.9203 22.2194 23.0117 22.2353 23.0381C22.2512 23.0644 22.3276 23.082 22.4052 23.077C22.4828 23.0721 23.0887 22.9021 23.7517 22.6993C24.4148 22.4965 25.3647 22.1576 25.8627 21.9464C26.3607 21.7351 27.1168 21.3798 27.5428 21.1567C27.9689 20.9335 28.6445 20.5262 29.044 20.2514C29.4436 19.9767 30.0771 19.4736 30.4518 19.1333C30.8266 18.793 31.3176 18.2872 31.5431 18.0093C31.7686 17.7315 32.0746 17.2929 32.2231 17.0347C32.3815 16.7593 32.5832 16.2708 32.7108 15.8534C32.8481 15.4044 32.9366 14.9786 32.9503 14.6997C32.9624 14.4565 32.9549 14.1311 32.9335 13.9765C32.9123 13.8221 32.8597 13.6891 32.8167 13.6811C32.7739 13.6731 32.0295 13.8052 31.1627 13.9746ZM14.077 9.83995C14.1814 9.92559 14.2968 10.0961 14.3334 10.2188C14.37 10.3416 14.38 10.5223 14.3556 10.6204C14.3313 10.7184 14.2442 10.875 14.1622 10.9683C14.0802 11.0616 13.9338 11.1685 13.8368 11.2058C13.7398 11.2431 13.5375 11.2431 13.3872 11.2057C13.2369 11.1683 13.0581 11.0736 12.99 10.9952C12.9217 10.9168 12.8424 10.7538 12.8137 10.6329C12.7849 10.5121 12.7814 10.333 12.8058 10.2349C12.8301 10.1369 12.9232 9.98229 13.0128 9.89136C13.1022 9.8004 13.2792 9.7034 13.4063 9.67567C13.5332 9.64799 13.6933 9.63858 13.7621 9.65482C13.8308 9.67098 13.9725 9.75431 14.077 9.83995Z" fill="#326CF4"/>
<circle r="2.15962" transform="matrix(-0.970443 -0.24133 -0.24133 0.970443 14.3246 10.8352)" fill="white"/>
<circle r="1.1317" transform="matrix(-0.970443 -0.24133 -0.24133 0.970443 14.3246 10.8352)" fill="#5A5E6A"/>
</g>
<path d="M22.0637 9.12899C22.3457 8.99904 22.4702 8.66429 22.3263 8.38914C21.2361 6.30415 19.5163 4.60905 17.4049 3.54965C15.2935 2.49025 12.9066 2.12485 10.5834 2.49714C10.2768 2.54626 10.0829 2.84617 10.1473 3.14992V3.14992C10.2117 3.45367 10.51 3.64607 10.8169 3.59864C12.8902 3.2782 15.0172 3.60963 16.9007 4.55465C18.7841 5.49967 20.3213 7.00674 21.3037 8.86044C21.4491 9.13479 21.7817 9.25895 22.0637 9.12899V9.12899Z" fill="white"/>
<defs>
<linearGradient id="paint0_linear_496_36" x1="31.1263" y1="19.4819" x2="-4.34107" y2="19.4819" gradientUnits="userSpaceOnUse">
<stop stop-color="#4481EB"/>
<stop offset="1" stop-color="#04BEFE"/>
</linearGradient>
</defs>
</svg>
