<?xml version="1.0" encoding="iso-8859-1"?>
<!-- Generator: Adobe Illustrator 16.0.0, SVG Export Plug-In . SVG Version: 6.00 Build 0)  -->
<!DOCTYPE svg PUBLIC "-//W3C//DTD SVG 1.1//EN" "http://www.w3.org/Graphics/SVG/1.1/DTD/svg11.dtd">
<svg version="1.1" id="Capa_1" xmlns="http://www.w3.org/2000/svg" xmlns:xlink="http://www.w3.org/1999/xlink" x="0px" y="0px"
	 width="612.007px" height="612.007px" viewBox="0 0 612.007 612.007" style="enable-background:new 0 0 612.007 612.007;"
	 xml:space="preserve">
<g>
	<path d="M587.572,186.881c-32.266-75.218-87.061-130.013-162.285-162.286C387.418,8.348,347.992,0.167,306.503,0.167
		s-81.214,8.259-119.119,24.428c-75.86,32.352-130.969,86.939-163.292,162.286C7.895,224.636,0,264.176,0,305.671
		c0,41.488,7.895,81.364,24.092,119.119c32.323,75.347,87.432,130.27,163.292,162.621c37.905,16.168,77.63,24.428,119.119,24.428
		s80.915-8.181,118.791-24.428c75.218-32.273,130.02-87.403,162.285-162.621c16.247-37.877,24.428-77.631,24.428-119.119
		C612,264.176,603.826,224.757,587.572,186.881z M306.503,575.026c-48.52,0-93.735-11.971-135.181-36.135
		c-41.203-24.021-74.019-56.843-98.04-98.039c-24.171-41.453-36.142-86.668-36.142-135.181c0-65.923,24.428-127.828,66.252-176.005
		l379.116,378.773C434.324,550.27,372.42,575.026,306.503,575.026z M508.606,482.34L129.491,103.561
		c48.185-41.824,110.425-66.588,177.012-66.588c48.52,0,93.356,12.05,134.516,36.142c41.161,24.092,73.826,56.958,97.704,98.04
		c23.964,41.231,36.135,85.997,36.135,134.517C574.858,372.259,550.431,434.157,508.606,482.34z"/>
</g>
<g>
</g>
<g>
</g>
<g>
</g>
<g>
</g>
<g>
</g>
<g>
</g>
<g>
</g>
<g>
</g>
<g>
</g>
<g>
</g>
<g>
</g>
<g>
</g>
<g>
</g>
<g>
</g>
<g>
</g>
</svg>
